<?xml version="1.0" encoding="UTF-8"?>
<svg width="20" height="20" viewBox="0 0 20 20" fill="none" xmlns="http://www.w3.org/2000/svg" aria-hidden="true">
  <path d="M13.4545 1.81818C12.6 2.76364 11.7091 4.20909 12.0545 5.54545C13.3909 5.6 14.7818 4.73636 15.6545 3.79091C16.4636 2.9 16.9909 1.65455 16.8182 0.454545C15.5727 0.509091 14.1455 1.25455 13.4545 1.81818Z" fill="#343434"/>
  <path d="M17.1455 13.0091C17.1273 10.3364 19.3091 9.16364 19.4182 9.1C18.2 7.30909 16.2364 7.04545 15.6 7C14.0636 6.84545 12.6 7.9 11.8909 7.9C11.1636 7.9 9.92727 7.01818 8.6 7.05455C6.92727 7.09091 5.38182 8.07273 4.50909 9.59091C2.8 12.55 3.98182 16.8182 5.65455 19.1273C6.49091 20.2909 7.50909 21.6 8.82727 21.5545C10.1091 21.4909 10.6 20.7636 12.2 20.7636C13.7818 20.7636 14.2364 21.5545 15.5818 21.5182C16.9636 21.4909 17.8364 20.3455 18.6545 19.1636C19.6 17.8 19.9818 16.4727 20 16.4091C19.9636 16.3909 17.1636 15.3182 17.1455 13.0091Z" transform="translate(-2 -3) scale(0.95)" fill="#343434"/>
</svg>
