<?xml version="1.0" encoding="UTF-8"?>
<svg width="20" height="20" viewBox="0 0 20 20" fill="none" xmlns="http://www.w3.org/2000/svg" aria-hidden="true">
  <path d="M19.6 10.2273C19.6 9.51817 19.5364 8.83635 19.4182 8.18182H10V12.05H15.4545C15.2182 13.3182 14.5 14.3591 13.4091 15.0727V17.7091H16.6364C18.5455 15.9636 19.6 13.3455 19.6 10.2273Z" fill="#4285F4"/>
  <path d="M10 20C12.7 20 14.9636 19.1045 16.6364 17.7091L13.4091 15.0727C12.5 15.6818 11.3636 16.0455 10 16.0455C7.39091 16.0455 5.2 14.2818 4.40909 11.9H1.09091V14.6182C2.75455 17.9727 6.11818 20 10 20Z" fill="#34A853"/>
  <path d="M4.40909 11.9C4.2 11.2909 4.09091 10.6364 4.09091 9.95455C4.09091 9.27273 4.20909 8.61818 4.40909 8.00909V5.29091H1.09091C0.4 6.65455 0 8.26364 0 10C0 11.7364 0.4 13.3455 1.09091 14.7091L4.40909 11.9Z" fill="#FBBC05"/>
  <path d="M10 3.95455C11.4818 3.95455 12.7909 4.46364 13.8 5.41818L16.7091 2.50909C14.9636 0.881818 12.7 0 10 0C6.11818 0 2.75455 2.02727 1.09091 5.29091L4.40909 8.00909C5.2 5.62727 7.39091 3.95455 10 3.95455Z" fill="#EA4335"/>
</svg>
