<svg width="24" height="24" viewBox="0 0 24 24" fill="none" xmlns="http://www.w3.org/2000/svg">
<path d="M4.09672 13.2206L12.5807 21.7046C12.8248 21.9487 12.9453 22.2343 12.9421 22.5615C12.9389 22.8887 12.8101 23.1796 12.5555 23.4342C12.3009 23.672 12.0126 23.7951 11.6907 23.8035C11.3688 23.8119 11.0805 23.6888 10.8259 23.4342L0.41979 13.0281C0.266197 12.8745 0.157833 12.7125 0.0946999 12.542C0.0315666 12.3716 0 12.1875 0 11.9897C0 11.7919 0.0315666 11.6078 0.0946999 11.4374C0.157833 11.267 0.266197 11.1049 0.41979 10.9513L10.8259 0.545224C11.0531 0.317966 11.3346 0.201711 11.6702 0.196459C12.0058 0.191207 12.3009 0.307462 12.5555 0.545224C12.8101 0.799809 12.9374 1.09228 12.9374 1.42263C12.9374 1.75299 12.8101 2.04546 12.5555 2.30005L4.09672 10.7588H22.7691C23.1183 10.7588 23.4108 10.8767 23.6465 11.1123C23.8822 11.348 24 11.6404 24 11.9897C24 12.339 23.8822 12.6315 23.6465 12.8671C23.4108 13.1028 23.1183 13.2206 22.7691 13.2206H4.09672Z" fill="#343434"/>
</svg>
