<svg width="20" height="24" viewBox="0 0 20 24" fill="none" xmlns="http://www.w3.org/2000/svg">
<path d="M2.9944 24C2.3806 24 1.85634 23.7826 1.42163 23.3479C0.986896 22.9132 0.769531 22.3889 0.769531 21.7751V10.2249C0.769531 9.61104 0.986896 9.08678 1.42163 8.65207C1.85634 8.21734 2.3806 7.99998 2.9944 7.99998H4.46186V5.53843C4.46186 4.00156 5.00071 2.69427 6.07842 1.61656C7.15615 0.538855 8.46345 0 10.0003 0C11.5372 0 12.8445 0.538855 13.9222 1.61656C14.9999 2.69427 15.5388 4.00156 15.5388 5.53843V7.99998H17.0062C17.62 7.99998 18.1443 8.21734 18.579 8.65207C19.0137 9.08678 19.2311 9.61104 19.2311 10.2249V21.7751C19.2311 22.3889 19.0137 22.9132 18.579 23.3479C18.1443 23.7826 17.62 24 17.0062 24H2.9944ZM2.9944 22.1539H17.0062C17.1167 22.1539 17.2074 22.1184 17.2784 22.0473C17.3495 21.9763 17.385 21.8856 17.385 21.7751V10.2249C17.385 10.1144 17.3495 10.0237 17.2784 9.95263C17.2074 9.88162 17.1167 9.84611 17.0062 9.84611H2.9944C2.88394 9.84611 2.7932 9.88162 2.72219 9.95263C2.65117 10.0237 2.61566 10.1144 2.61566 10.2249V21.7751C2.61566 21.8856 2.65117 21.9763 2.72219 22.0473C2.7932 22.1184 2.88394 22.1539 2.9944 22.1539ZM10.0003 18.1538C10.5983 18.1538 11.1068 17.9443 11.5257 17.5254C11.9447 17.1065 12.1541 16.598 12.1541 16C12.1541 15.402 11.9447 14.8935 11.5257 14.4746C11.1068 14.0556 10.5983 13.8462 10.0003 13.8462C9.40228 13.8462 8.89381 14.0556 8.47489 14.4746C8.05596 14.8935 7.84649 15.402 7.84649 16C7.84649 16.598 8.05596 17.1065 8.47489 17.5254C8.89381 17.9443 9.40228 18.1538 10.0003 18.1538ZM6.30799 7.99998H13.6926V5.53843C13.6926 4.51278 13.3337 3.64098 12.6157 2.92303C11.8978 2.20508 11.026 1.8461 10.0003 1.8461C8.97467 1.8461 8.10287 2.20508 7.38492 2.92303C6.66697 3.64098 6.30799 4.51278 6.30799 5.53843V7.99998Z" fill="#343434"/>
</svg>
