<svg width="24" height="20" viewBox="0 0 24 20" fill="none" xmlns="http://www.w3.org/2000/svg">
<path d="M2.28342 19.4737C1.64535 19.4737 1.10527 19.2527 0.66316 18.8106C0.221053 18.3685 0 17.8284 0 17.1903V2.80978C0 2.17172 0.221053 1.63163 0.66316 1.18953C1.10527 0.74742 1.64535 0.526367 2.28342 0.526367H21.7166C22.3546 0.526367 22.8947 0.74742 23.3368 1.18953C23.7789 1.63163 24 2.17172 24 2.80978V17.1903C24 17.8284 23.7789 18.3685 23.3368 18.8106C22.8947 19.2527 22.3546 19.4737 21.7166 19.4737H2.28342ZM22.1053 4.2429L12.6146 10.3182C12.5174 10.3733 12.417 10.4166 12.3134 10.4482C12.2097 10.4798 12.1053 10.4956 12 10.4956C11.8947 10.4956 11.7903 10.4798 11.6866 10.4482C11.583 10.4166 11.4826 10.3733 11.3854 10.3182L1.89471 4.2429V17.1903C1.89471 17.3037 1.93115 17.3968 2.00404 17.4697C2.07692 17.5426 2.17005 17.579 2.28342 17.579H21.7166C21.83 17.579 21.9231 17.5426 21.996 17.4697C22.0688 17.3968 22.1053 17.3037 22.1053 17.1903V4.2429ZM12 8.73688L21.911 2.42108H2.08905L12 8.73688ZM1.89471 4.53438V3.0903V3.12794V3.08787V4.53438Z" fill="#343434"/>
</svg>
