<svg width="25" height="24" viewBox="0 0 25 24" fill="none" xmlns="http://www.w3.org/2000/svg">
<path d="M24.5 12C24.5 18.6274 19.1274 24 12.5 24C5.87258 24 0.5 18.6274 0.5 12C0.5 5.37258 5.87258 0 12.5 0C19.1274 0 24.5 5.37258 24.5 12Z" fill="#BF3F3F"/>
<path d="M14.948 10.32C14.7453 9.94667 14.452 9.664 14.068 9.472C13.6947 9.26933 13.252 9.168 12.74 9.168C11.8547 9.168 11.1453 9.46133 10.612 10.048C10.0787 10.624 9.812 11.3973 9.812 12.368C9.812 13.4027 10.0893 14.2133 10.644 14.8C11.2093 15.376 11.9827 15.664 12.964 15.664C13.636 15.664 14.2013 15.4933 14.66 15.152C15.1293 14.8107 15.4707 14.32 15.684 13.68H12.212V11.664H18.164V14.208C17.9613 14.8907 17.6147 15.5253 17.124 16.112C16.644 16.6987 16.0307 17.1733 15.284 17.536C14.5373 17.8987 13.6947 18.08 12.756 18.08C11.6467 18.08 10.6547 17.84 9.78 17.36C8.916 16.8693 8.23867 16.192 7.748 15.328C7.268 14.464 7.028 13.4773 7.028 12.368C7.028 11.2587 7.268 10.272 7.748 9.408C8.23867 8.53333 8.916 7.856 9.78 7.376C10.644 6.88533 11.6307 6.64 12.74 6.64C14.084 6.64 15.2147 6.96533 16.132 7.616C17.06 8.26667 17.6733 9.168 17.972 10.32H14.948Z" fill="#FCFCFC"/>
</svg>
