<svg width="24" height="22" viewBox="0 0 24 22" fill="none" xmlns="http://www.w3.org/2000/svg">
<path d="M16.3937 11.5229L15.0772 10.2064C15.2771 9.16334 15.0028 8.27361 14.2544 7.53719C13.5059 6.80077 12.6079 6.51822 11.5604 6.68955L10.2439 5.37302C10.5159 5.24677 10.7958 5.15584 11.0836 5.10024C11.3714 5.04463 11.6671 5.01683 11.9707 5.01683C13.3008 5.01683 14.4298 5.48085 15.3579 6.40891C16.2859 7.33696 16.7499 8.46601 16.7499 9.79608C16.7499 10.0997 16.724 10.3954 16.6722 10.6832C16.6203 10.971 16.5275 11.2509 16.3937 11.5229ZM20.1225 15.1705L18.8285 13.9577C19.5709 13.3911 20.2352 12.761 20.8214 12.0674C21.4075 11.3738 21.896 10.6167 22.2867 9.79608C21.3098 7.82275 19.8982 6.25483 18.0519 5.09232C16.2055 3.92982 14.1785 3.34856 11.9707 3.34856C11.4041 3.34856 10.8521 3.38764 10.3149 3.46579C9.77756 3.54394 9.23538 3.66117 8.68832 3.81747L7.32221 2.45136C8.06764 2.15679 8.82773 1.93961 9.60249 1.79984C10.3772 1.66007 11.1666 1.59018 11.9707 1.59018C14.4896 1.59018 16.8033 2.2447 18.9119 3.55374C21.0205 4.86278 22.6421 6.63396 23.7768 8.86728C23.855 9.01606 23.9117 9.16598 23.947 9.31703C23.9823 9.46807 24 9.62776 24 9.79608C24 9.9644 23.9853 10.1241 23.956 10.2751C23.9267 10.4262 23.873 10.5761 23.7949 10.7249C23.38 11.6071 22.8593 12.4217 22.2326 13.1686C21.6059 13.9156 20.9025 14.5829 20.1225 15.1705ZM11.9707 18.002C9.50292 18.002 7.24104 17.3426 5.18506 16.0238C3.12907 14.705 1.49464 12.968 0.281786 10.8128C0.184096 10.664 0.112714 10.5025 0.0676403 10.3281C0.0225467 10.1538 0 9.97643 0 9.79608C0 9.61572 0.0195379 9.44139 0.0586138 9.27307C0.0976896 9.10475 0.166072 8.94018 0.263762 8.77936C0.699614 7.98282 1.19333 7.22422 1.7449 6.50357C2.29648 5.78291 2.93071 5.13703 3.64759 4.56594L1.00095 1.90124C0.838626 1.7269 0.758599 1.51988 0.760865 1.28017C0.763112 1.04046 0.849147 0.835691 1.01897 0.665867C1.18879 0.496043 1.3947 0.411133 1.63667 0.411133C1.87863 0.411133 2.08452 0.496043 2.25434 0.665867L21.687 20.0986C21.8493 20.2609 21.9354 20.4619 21.9451 20.7016C21.9549 20.9413 21.8689 21.1521 21.687 21.3339C21.5172 21.5038 21.3113 21.5887 21.0693 21.5887C20.8274 21.5887 20.6215 21.5038 20.4517 21.3339L16.3262 17.2445C15.6348 17.512 14.9243 17.7051 14.1946 17.8239C13.465 17.9426 12.7237 18.002 11.9707 18.002ZM4.88297 5.80128C4.19613 6.33182 3.5788 6.93187 3.03098 7.60143C2.48315 8.27098 2.02438 9.00253 1.65467 9.79608C2.63156 11.7694 4.04318 13.3373 5.88951 14.4998C7.73585 15.6623 9.76291 16.2436 11.9707 16.2436C12.4742 16.2436 12.9698 16.2098 13.4575 16.1421C13.9452 16.0745 14.4295 15.9701 14.9104 15.8288L13.427 14.3093C13.1896 14.413 12.9525 14.4833 12.7158 14.5201C12.4791 14.5569 12.2307 14.5753 11.9707 14.5753C10.6406 14.5753 9.51157 14.1113 8.58352 13.1833C7.65547 12.2552 7.19144 11.1261 7.19144 9.79608C7.19144 9.53607 7.21173 9.28771 7.25231 9.05101C7.29289 8.81429 7.36128 8.5772 7.45746 8.33973L4.88297 5.80128Z" fill="#343434"/>
</svg>
